<svg width="12" height="17" viewBox="0 0 12 17" fill="none" xmlns="http://www.w3.org/2000/svg">
<path d="M5.375 16.3545C0.8125 9.79199 0 9.10449 0 6.66699C0 3.35449 2.65625 0.666992 6 0.666992C9.3125 0.666992 12 3.35449 12 6.66699C12 9.10449 11.1562 9.79199 6.59375 16.3545C6.3125 16.792 5.65625 16.792 5.375 16.3545ZM6 9.16699C7.375 9.16699 8.5 8.07324 8.5 6.66699C8.5 5.29199 7.375 4.16699 6 4.16699C4.59375 4.16699 3.5 5.29199 3.5 6.66699C3.5 8.07324 4.59375 9.16699 6 9.16699Z" fill="white"/>
</svg>
