<svg width="125" height="49" viewBox="0 0 125 49" fill="none" xmlns="http://www.w3.org/2000/svg">
<circle cx="100.5" cy="24.5" r="24" stroke="#818181"/>
<circle cx="24.5" cy="24.5" r="24" stroke="#EBEBEB"/>
<path d="M111 23.9407V24.0584C110.974 24.3214 110.875 24.5392 110.703 24.7119C107.72 27.6948 104.836 30.5763 102.052 33.3564C101.839 33.5687 101.59 33.6704 101.305 33.6615C100.42 33.6344 100.016 32.5709 100.637 31.9496C102.944 29.6419 105.251 27.3345 107.559 25.0273C107.575 25.0122 107.572 25.0046 107.55 25.0046C101.711 24.998 95.871 24.9963 90.0312 24.9994C89.4731 24.9998 89.0477 24.6071 89 24.0524V23.9441C89.0243 23.6871 89.1187 23.4743 89.2832 23.3056C89.4126 23.1721 89.5659 23.0824 89.7429 23.0366C89.8415 23.0111 90.0035 22.9984 90.2289 22.9984C95.9581 23.0024 101.735 23.0026 107.558 22.9992C107.56 22.9993 107.563 22.9987 107.565 22.9974C107.566 22.9962 107.568 22.9944 107.569 22.9922C107.57 22.9901 107.57 22.9877 107.569 22.9854C107.569 22.9832 107.568 22.9811 107.566 22.9794C105.26 20.6735 102.953 18.3666 100.645 16.0589C100.257 15.6705 100.222 15.0414 100.616 14.6414C100.933 14.3204 101.421 14.2396 101.815 14.4587C101.902 14.5069 102.028 14.6134 102.193 14.7784C105.022 17.6075 107.852 20.4366 110.682 23.2656C110.868 23.4518 110.974 23.6768 111 23.9407Z" fill="#818181"/>
<path d="M14 24.0593L14 23.9416C14.0258 23.6786 14.1249 23.4608 14.2973 23.2881C17.2802 20.3052 20.1639 17.4237 22.9482 14.6436C23.1608 14.4313 23.4099 14.3296 23.6955 14.3385C24.5802 14.3656 24.9837 15.4291 24.3628 16.0504C22.0559 18.3581 19.7485 20.6655 17.4405 22.9727C17.4253 22.9878 17.4285 22.9954 17.45 22.9954C23.2894 23.002 29.129 23.0037 34.9688 23.0006C35.5269 23.0002 35.9523 23.3929 36 23.9476L36 24.0559C35.9757 24.3129 35.8813 24.5257 35.7168 24.6944C35.5874 24.8279 35.4341 24.9176 35.2571 24.9634C35.1585 24.9889 34.9965 25.0016 34.7711 25.0016C29.0419 24.9976 23.2655 24.9974 17.4418 25.0008C17.4395 25.0007 17.4373 25.0013 17.4354 25.0026C17.4336 25.0038 17.4321 25.0056 17.4313 25.0078C17.4304 25.0099 17.4302 25.0123 17.4307 25.0146C17.4312 25.0168 17.4324 25.0189 17.4341 25.0206C19.7401 27.3265 22.0469 29.6334 24.3546 31.9411C24.743 32.3295 24.7783 32.9586 24.3838 33.3586C24.0671 33.6796 23.579 33.7604 23.1846 33.5413C23.0981 33.4931 22.9723 33.3866 22.8073 33.2216C19.9777 30.3925 17.148 27.5634 14.3184 24.7344C14.1325 24.5482 14.0264 24.3232 14 24.0593Z" fill="#EBEBEB"/>
</svg>
