<svg width="10" height="13" viewBox="0 0 10 13" fill="none" xmlns="http://www.w3.org/2000/svg">
<path d="M5.28125 0.664062C7.48438 0.664062 9.5 2.1875 9.5 4.50781C9.5 6.6875 8.375 9.125 5.89062 9.125C5.28125 9.125 4.55469 8.82031 4.25 8.28125C3.73438 10.3906 3.75781 10.7188 2.58594 12.3359C2.46875 12.3828 2.49219 12.3828 2.42188 12.2891C2.375 11.8438 2.32812 11.4219 2.32812 10.9766C2.32812 9.54688 2.98438 7.46094 3.3125 6.07812C3.125 5.70312 3.07812 5.28125 3.07812 4.88281C3.07812 3.00781 5.28125 2.72656 5.28125 4.27344C5.28125 5.1875 4.64844 6.05469 4.64844 6.94531C4.64844 7.53125 5.16406 7.95312 5.75 7.95312C7.36719 7.95312 7.85938 5.63281 7.85938 4.39062C7.85938 2.72656 6.6875 1.8125 5.07031 1.8125C3.21875 1.8125 1.78906 3.14844 1.78906 5.02344C1.78906 5.9375 2.35156 6.40625 2.35156 6.61719C2.35156 6.80469 2.21094 7.4375 1.97656 7.4375C1.41406 7.4375 0.5 6.5 0.5 4.85938C0.5 2.25781 2.86719 0.664062 5.28125 0.664062Z" fill="white"/>
</svg>
