<svg width="19" height="19" viewBox="0 0 19 19" fill="none" xmlns="http://www.w3.org/2000/svg">
<path d="M9.33333 5.00781C11.7943 5.00781 13.8255 7.03906 13.8255 9.5C13.8255 12 11.7943 13.9922 9.33333 13.9922C6.83333 13.9922 4.84115 12 4.84115 9.5C4.84115 7.03906 6.83333 5.00781 9.33333 5.00781ZM9.33333 12.4297C10.9349 12.4297 12.224 11.1406 12.224 9.5C12.224 7.89844 10.9349 6.60938 9.33333 6.60938C7.69271 6.60938 6.40365 7.89844 6.40365 9.5C6.40365 11.1406 7.73177 12.4297 9.33333 12.4297ZM15.0365 4.85156C15.0365 5.4375 14.5677 5.90625 13.9818 5.90625C13.3958 5.90625 12.9271 5.4375 12.9271 4.85156C12.9271 4.26562 13.3958 3.79688 13.9818 3.79688C14.5677 3.79688 15.0365 4.26562 15.0365 4.85156ZM18.0052 5.90625C18.0833 7.35156 18.0833 11.6875 18.0052 13.1328C17.9271 14.5391 17.6146 15.75 16.599 16.8047C15.5833 17.8203 14.3333 18.1328 12.9271 18.2109C11.4818 18.2891 7.14583 18.2891 5.70052 18.2109C4.29427 18.1328 3.08333 17.8203 2.02865 16.8047C1.01302 15.75 0.700521 14.5391 0.622396 13.1328C0.544271 11.6875 0.544271 7.35156 0.622396 5.90625C0.700521 4.5 1.01302 3.25 2.02865 2.23438C3.08333 1.21875 4.29427 0.90625 5.70052 0.828125C7.14583 0.75 11.4818 0.75 12.9271 0.828125C14.3333 0.90625 15.5833 1.21875 16.599 2.23438C17.6146 3.25 17.9271 4.5 18.0052 5.90625ZM16.1302 14.6562C16.599 13.5234 16.4818 10.7891 16.4818 9.5C16.4818 8.25 16.599 5.51562 16.1302 4.34375C15.8177 3.60156 15.2318 2.97656 14.4896 2.70312C13.3177 2.23438 10.5833 2.35156 9.33333 2.35156C8.04427 2.35156 5.3099 2.23438 4.17708 2.70312C3.39583 3.01562 2.8099 3.60156 2.4974 4.34375C2.02865 5.51562 2.14583 8.25 2.14583 9.5C2.14583 10.7891 2.02865 13.5234 2.4974 14.6562C2.8099 15.4375 3.39583 16.0234 4.17708 16.3359C5.3099 16.8047 8.04427 16.6875 9.33333 16.6875C10.5833 16.6875 13.3177 16.8047 14.4896 16.3359C15.2318 16.0234 15.8568 15.4375 16.1302 14.6562Z" fill="#818181"/>
</svg>
