<svg width="11" height="11" viewBox="0 0 11 11" fill="none" xmlns="http://www.w3.org/2000/svg">
<path d="M5.66683 2.80469C7.14339 2.80469 8.36214 4.02344 8.36214 5.5C8.36214 7 7.14339 8.19531 5.66683 8.19531C4.16683 8.19531 2.97152 7 2.97152 5.5C2.97152 4.02344 4.16683 2.80469 5.66683 2.80469ZM5.66683 7.25781C6.62777 7.25781 7.4012 6.48438 7.4012 5.5C7.4012 4.53906 6.62777 3.76562 5.66683 3.76562C4.68245 3.76562 3.90902 4.53906 3.90902 5.5C3.90902 6.48438 4.70589 7.25781 5.66683 7.25781ZM9.0887 2.71094C9.0887 3.0625 8.80745 3.34375 8.45589 3.34375C8.10433 3.34375 7.82308 3.0625 7.82308 2.71094C7.82308 2.35938 8.10433 2.07812 8.45589 2.07812C8.80745 2.07812 9.0887 2.35938 9.0887 2.71094ZM10.87 3.34375C10.9168 4.21094 10.9168 6.8125 10.87 7.67969C10.8231 8.52344 10.6356 9.25 10.0262 9.88281C9.41683 10.4922 8.66683 10.6797 7.82308 10.7266C6.95589 10.7734 4.35433 10.7734 3.48714 10.7266C2.64339 10.6797 1.91683 10.4922 1.28402 9.88281C0.674642 9.25 0.487142 8.52344 0.440267 7.67969C0.393392 6.8125 0.393392 4.21094 0.440267 3.34375C0.487142 2.5 0.674642 1.75 1.28402 1.14062C1.91683 0.53125 2.64339 0.34375 3.48714 0.296875C4.35433 0.25 6.95589 0.25 7.82308 0.296875C8.66683 0.34375 9.41683 0.53125 10.0262 1.14062C10.6356 1.75 10.8231 2.5 10.87 3.34375ZM9.74495 8.59375C10.0262 7.91406 9.95589 6.27344 9.95589 5.5C9.95589 4.75 10.0262 3.10938 9.74495 2.40625C9.55745 1.96094 9.20589 1.58594 8.76058 1.42188C8.05745 1.14062 6.41683 1.21094 5.66683 1.21094C4.89339 1.21094 3.25277 1.14062 2.57308 1.42188C2.10433 1.60938 1.75277 1.96094 1.56527 2.40625C1.28402 3.10938 1.35433 4.75 1.35433 5.5C1.35433 6.27344 1.28402 7.91406 1.56527 8.59375C1.75277 9.0625 2.10433 9.41406 2.57308 9.60156C3.25277 9.88281 4.89339 9.8125 5.66683 9.8125C6.41683 9.8125 8.05745 9.88281 8.76058 9.60156C9.20589 9.41406 9.58089 9.0625 9.74495 8.59375Z" fill="white"/>
</svg>
