<svg width="16" height="21" viewBox="0 0 16 21" fill="none" xmlns="http://www.w3.org/2000/svg">
<path d="M8.46875 0.773438C12.1406 0.773438 15.5 3.3125 15.5 7.17969C15.5 10.8125 13.625 14.875 9.48438 14.875C8.46875 14.875 7.25781 14.3672 6.75 13.4688C5.89062 16.9844 5.92969 17.5312 3.97656 20.2266C3.78125 20.3047 3.82031 20.3047 3.70312 20.1484C3.625 19.4062 3.54688 18.7031 3.54688 17.9609C3.54688 15.5781 4.64062 12.1016 5.1875 9.79688C4.875 9.17188 4.79688 8.46875 4.79688 7.80469C4.79688 4.67969 8.46875 4.21094 8.46875 6.78906C8.46875 8.3125 7.41406 9.75781 7.41406 11.2422C7.41406 12.2188 8.27344 12.9219 9.25 12.9219C11.9453 12.9219 12.7656 9.05469 12.7656 6.98438C12.7656 4.21094 10.8125 2.6875 8.11719 2.6875C5.03125 2.6875 2.64844 4.91406 2.64844 8.03906C2.64844 9.5625 3.58594 10.3438 3.58594 10.6953C3.58594 11.0078 3.35156 12.0625 2.96094 12.0625C2.02344 12.0625 0.5 10.5 0.5 7.76562C0.5 3.42969 4.44531 0.773438 8.46875 0.773438Z" fill="#818181"/>
</svg>
