<svg width="71" height="48" viewBox="0 0 71 48" fill="none" xmlns="http://www.w3.org/2000/svg">
<path d="M70.7602 47.9454L65.2676 47.9227C57.5046 46.5212 51.1826 41.4958 47.9016 34.7741V47.9454L42.409 47.9227C34.8544 46.5575 28.6684 41.7634 25.3149 35.3139V47.9454L19.8223 47.9227C8.33406 45.8454 0 35.8491 0 24.1519C0 10.9398 10.7405 0.108854 23.9372 0.00907133L25.3058 0V13.0488C29.3074 5.3701 37.3197 0.0816403 46.5239 0.00907133L47.8925 0V13.5885C51.799 5.61956 59.9654 0.0816404 69.3825 0.013607L70.7511 0.00453566V47.9499L70.7602 47.9454ZM65.6302 45.2241H68.0411V2.78483C56.9653 3.57856 48.169 12.8901 48.169 24.1564C48.169 34.4975 55.506 43.3373 65.6302 45.2241ZM42.7715 45.2241H45.1825V2.78483C34.1067 3.57856 25.3149 12.8901 25.3149 24.1564C25.3149 34.4975 32.6519 43.3373 42.7761 45.2241H42.7715ZM20.1848 45.2241H22.5958V2.78483C11.5199 3.57856 2.72364 12.8901 2.72364 24.1564C2.72364 34.4975 10.0607 43.3373 20.1848 45.2241Z" fill="#F04A26"/>
</svg>
