<svg width="63" height="63" viewBox="0 0 63 63" fill="none" xmlns="http://www.w3.org/2000/svg">
<path d="M31.4041 62.8598L22.2064 53.6545H9.19771V40.6351L0 31.4299L9.19771 22.2246V9.20525H22.2064L31.4041 0L40.6018 9.20525H53.6105V22.2246L62.8082 31.4299L53.6105 40.6351V53.6545H40.6018L31.4041 62.8598ZM25.7737 53.6545L31.4041 59.2895L37.0345 53.6545H25.7695H25.7737ZM43.1229 51.1314H51.0895V43.1583L43.1229 51.1314ZM23.2526 51.1314H39.5598L51.0895 39.5922V23.2717L39.5598 11.7326H23.2526L11.723 23.2717V39.5922L23.2526 51.1314ZM11.723 51.1314H19.6895L11.723 43.1583V51.1314ZM53.6105 25.7949V37.0691L59.2451 31.4341L53.6105 25.7991V25.7949ZM3.57152 31.4299L9.20191 37.0649V25.7907L3.57152 31.4257V31.4299ZM11.723 11.7326V19.7057L19.6895 11.7326H11.723ZM43.1229 11.7326L51.0895 19.7057V11.7326H43.1229ZM25.7737 9.20945H37.0387L31.4083 3.57444L25.7779 9.20945H25.7737Z" fill="#12386B"/>
</svg>
