<svg width="12" height="12" viewBox="0 0 12 12" fill="none" xmlns="http://www.w3.org/2000/svg">
<path d="M0.843445 5.99898C0.843445 2.72058 2.62995 0.357178 6.11592 0.357178C8.98173 0.357178 10.5746 1.97903 10.9641 4.53541L9.07095 4.90618C8.69885 3.12604 7.76098 2.15683 6.02888 2.15683C3.81805 2.15683 2.86278 3.74399 2.86278 5.99898C2.86278 8.04365 3.83546 9.59612 6.25954 9.59612C8.50736 9.59612 9.14275 8.5727 9.14275 7.44521V7.30427H6.01147V5.52413H11.0533V11.1486H9.14275V8.69846H9.10794C8.75325 10.1794 7.65654 11.3242 5.58715 11.3242C2.59731 11.3242 0.845623 9.10393 0.845623 6.00115L0.843445 5.99898Z" fill="white"/>
</svg>
